<svg width="169" height="43" viewBox="0 0 169 43" fill="none" xmlns="http://www.w3.org/2000/svg">
<g clip-path="url(#clip0_1_1029)">
<path d="M68.026 29H64.294V11.3H70.354C71.706 11.3 72.862 11.564 73.822 12.092C74.79 12.612 75.526 13.32 76.03 14.216C76.542 15.104 76.798 16.108 76.798 17.228C76.798 18.34 76.538 19.36 76.018 20.288C75.506 21.208 74.77 21.948 73.81 22.508C72.85 23.06 71.698 23.336 70.354 23.336H68.026V29ZM68.026 22.184L66.346 20.456H69.958C70.582 20.456 71.126 20.332 71.59 20.084C72.054 19.828 72.414 19.46 72.67 18.98C72.926 18.492 73.054 17.908 73.054 17.228C73.054 16.54 72.926 15.972 72.67 15.524C72.422 15.068 72.066 14.732 71.602 14.516C71.146 14.292 70.598 14.18 69.958 14.18H66.346L68.026 12.404V22.184ZM84.8926 29.276C83.5166 29.276 82.3046 28.992 81.2566 28.424C80.2086 27.856 79.3886 27.076 78.7966 26.084C78.2126 25.084 77.9206 23.932 77.9206 22.628C77.9206 21.332 78.2126 20.188 78.7966 19.196C79.3886 18.196 80.2086 17.42 81.2566 16.868C82.3046 16.308 83.5166 16.028 84.8926 16.028C86.2686 16.028 87.4806 16.308 88.5286 16.868C89.5766 17.42 90.3926 18.196 90.9766 19.196C91.5686 20.188 91.8646 21.332 91.8646 22.628C91.8646 23.932 91.5686 25.084 90.9766 26.084C90.3926 27.076 89.5766 27.856 88.5286 28.424C87.4806 28.992 86.2686 29.276 84.8926 29.276ZM84.8926 26.324C85.5406 26.324 86.1046 26.172 86.5846 25.868C87.0646 25.564 87.4366 25.136 87.7006 24.584C87.9646 24.024 88.0966 23.372 88.0966 22.628C88.0966 21.884 87.9646 21.24 87.7006 20.696C87.4366 20.144 87.0646 19.72 86.5846 19.424C86.1046 19.128 85.5406 18.98 84.8926 18.98C84.2526 18.98 83.6886 19.128 83.2006 19.424C82.7206 19.72 82.3486 20.144 82.0846 20.696C81.8206 21.24 81.6886 21.884 81.6886 22.628C81.6886 23.372 81.8206 24.024 82.0846 24.584C82.3486 25.136 82.7206 25.564 83.2006 25.868C83.6886 26.172 84.2526 26.324 84.8926 26.324ZM94.1883 29V16.256H97.9203V20.648L97.1523 20.168C97.2403 19.568 97.4003 19.016 97.6323 18.512C97.8643 18.008 98.1643 17.572 98.5323 17.204C98.9003 16.828 99.3363 16.536 99.8403 16.328C100.352 16.12 100.936 16.016 101.592 16.016C102.104 16.016 102.504 16.056 102.792 16.136C103.088 16.208 103.272 16.264 103.344 16.304L102.732 19.64C102.66 19.6 102.5 19.536 102.252 19.448C102.004 19.36 101.684 19.316 101.292 19.316C100.652 19.316 100.116 19.424 99.6843 19.64C99.2523 19.856 98.9043 20.144 98.6403 20.504C98.3843 20.856 98.2003 21.248 98.0883 21.68C97.9763 22.112 97.9203 22.548 97.9203 22.988V29H94.1883ZM111.491 29.264C111.003 29.264 110.499 29.22 109.979 29.132C109.467 29.052 108.987 28.888 108.539 28.64C108.099 28.384 107.743 28.012 107.471 27.524C107.199 27.036 107.063 26.392 107.063 25.592C107.063 25.416 107.063 25.236 107.063 25.052C107.063 24.868 107.063 24.684 107.063 24.5V19.136H104.123V16.256H104.951C105.431 16.256 105.811 16.236 106.091 16.196C106.379 16.156 106.591 16.056 106.727 15.896C106.871 15.728 106.963 15.468 107.003 15.116C107.043 14.764 107.063 14.28 107.063 13.664V12.056H110.795V16.256H114.503V19.136H110.795V23.72C110.795 23.864 110.795 24.004 110.795 24.14C110.795 24.276 110.795 24.408 110.795 24.536C110.795 25.088 110.859 25.536 110.987 25.88C111.123 26.224 111.455 26.396 111.983 26.396C112.247 26.396 112.495 26.372 112.727 26.324C112.967 26.276 113.147 26.228 113.267 26.18V28.976C113.099 29.048 112.863 29.112 112.559 29.168C112.255 29.232 111.899 29.264 111.491 29.264ZM118.307 29V19.136H115.655V16.256H118.307V15.38C118.307 14.532 118.419 13.808 118.643 13.208C118.875 12.6 119.187 12.096 119.579 11.696C119.971 11.288 120.411 10.968 120.899 10.736C121.395 10.496 121.903 10.328 122.423 10.232C122.951 10.128 123.463 10.076 123.959 10.076C124.487 10.076 124.879 10.108 125.135 10.172C125.399 10.228 125.575 10.276 125.663 10.316V13.208C125.567 13.176 125.395 13.14 125.147 13.1C124.907 13.06 124.647 13.04 124.367 13.04C123.903 13.04 123.519 13.1 123.215 13.22C122.911 13.34 122.671 13.516 122.495 13.748C122.319 13.972 122.195 14.24 122.123 14.552C122.051 14.856 122.015 15.188 122.015 15.548V16.256H125.435V19.136H122.015V29H118.307ZM133.221 29.276C131.845 29.276 130.633 28.992 129.585 28.424C128.537 27.856 127.717 27.076 127.125 26.084C126.541 25.084 126.249 23.932 126.249 22.628C126.249 21.332 126.541 20.188 127.125 19.196C127.717 18.196 128.537 17.42 129.585 16.868C130.633 16.308 131.845 16.028 133.221 16.028C134.597 16.028 135.809 16.308 136.857 16.868C137.905 17.42 138.721 18.196 139.305 19.196C139.897 20.188 140.193 21.332 140.193 22.628C140.193 23.932 139.897 25.084 139.305 26.084C138.721 27.076 137.905 27.856 136.857 28.424C135.809 28.992 134.597 29.276 133.221 29.276ZM133.221 26.324C133.869 26.324 134.433 26.172 134.913 25.868C135.393 25.564 135.765 25.136 136.029 24.584C136.293 24.024 136.425 23.372 136.425 22.628C136.425 21.884 136.293 21.24 136.029 20.696C135.765 20.144 135.393 19.72 134.913 19.424C134.433 19.128 133.869 18.98 133.221 18.98C132.581 18.98 132.017 19.128 131.529 19.424C131.049 19.72 130.677 20.144 130.413 20.696C130.149 21.24 130.017 21.884 130.017 22.628C130.017 23.372 130.149 24.024 130.413 24.584C130.677 25.136 131.049 25.564 131.529 25.868C132.017 26.172 132.581 26.324 133.221 26.324ZM146.368 10.244V29H142.696V10.244H146.368ZM149.193 29V16.256H152.877V29H149.193ZM151.029 14.18C150.453 14.18 149.949 14.028 149.517 13.724C149.093 13.42 148.881 12.992 148.881 12.44C148.881 11.88 149.093 11.448 149.517 11.144C149.949 10.84 150.453 10.688 151.029 10.688C151.613 10.688 152.117 10.84 152.541 11.144C152.973 11.448 153.189 11.88 153.189 12.44C153.189 13 152.973 13.432 152.541 13.736C152.117 14.032 151.613 14.18 151.029 14.18ZM162.002 29.276C160.626 29.276 159.414 28.992 158.366 28.424C157.318 27.856 156.498 27.076 155.906 26.084C155.322 25.084 155.03 23.932 155.03 22.628C155.03 21.332 155.322 20.188 155.906 19.196C156.498 18.196 157.318 17.42 158.366 16.868C159.414 16.308 160.626 16.028 162.002 16.028C163.378 16.028 164.59 16.308 165.638 16.868C166.686 17.42 167.502 18.196 168.086 19.196C168.678 20.188 168.974 21.332 168.974 22.628C168.974 23.932 168.678 25.084 168.086 26.084C167.502 27.076 166.686 27.856 165.638 28.424C164.59 28.992 163.378 29.276 162.002 29.276ZM162.002 26.324C162.65 26.324 163.214 26.172 163.694 25.868C164.174 25.564 164.546 25.136 164.81 24.584C165.074 24.024 165.206 23.372 165.206 22.628C165.206 21.884 165.074 21.24 164.81 20.696C164.546 20.144 164.174 19.72 163.694 19.424C163.214 19.128 162.65 18.98 162.002 18.98C161.362 18.98 160.798 19.128 160.31 19.424C159.83 19.72 159.458 20.144 159.194 20.696C158.93 21.24 158.798 21.884 158.798 22.628C158.798 23.372 158.93 24.024 159.194 24.584C159.458 25.136 159.83 25.564 160.31 25.868C160.798 26.172 161.362 26.324 162.002 26.324Z" fill="white"/>
<path d="M3.12073 17.3847L23 3.07997L42.8793 17.3847L35.2959 40.5003H10.7041L3.12073 17.3847Z" stroke="#EF6D58" stroke-width="5"/>
<path d="M22.5 14L31.535 20.5643L28.084 31.1857H16.916L13.465 20.5643L22.5 14Z" fill="#EF6D58"/>
</g>
<defs>
<clipPath id="clip0_1_1029">
<rect width="169" height="43" fill="white"/>
</clipPath>
</defs>
</svg>
