<?xml version="1.0" encoding="utf-8"?><svg viewBox="0 0 148 148" xmlns="http://www.w3.org/2000/svg" xmlns:xlink="http://www.w3.org/1999/xlink"><style>:root>svg{display:none}:root>svg:target{display:block}</style><svg fill="none" viewBox="0 0 16 14" id="icon-check" xmlns="http://www.w3.org/2000/svg"><path fill-rule="evenodd" clip-rule="evenodd" d="M0 5.92c1.84.426 4.208 1.25 6 2.545C8.105 5.335 11.885 2.406 16 0c-3.907 4.274-7.14 9.124-9.333 14C4.899 11.213 2.969 8.619 0 5.92Z" fill="#fff"/></svg><svg fill="none" viewBox="0 0 32 32" id="icon-design" xmlns="http://www.w3.org/2000/svg"><path fill-rule="evenodd" clip-rule="evenodd" d="M16 0a1 1 0 0 1 .894.552l.724 1.45H27c1.657 0 3 1.343 3 3.001v15.01H2V5.004a3.001 3.001 0 0 1 3-3.002h9.38l.726-1.449A1 1 0 0 1 16 0ZM1 22.015a1 1 0 0 0 0 2.002h5.72l-1.69 6.762a1 1 0 0 0 1.94.485l.81-3.244h16.44l.81 3.244a1 1 0 0 0 1.94-.485l-1.69-6.762H31a1 1 0 0 0 0-2.002H1Zm7.28 4.003.5-2.001h14.44l.5 2.001H8.28Z" fill="#fff"/></svg><svg fill="none" viewBox="0 0 32 26" id="icon-development" xmlns="http://www.w3.org/2000/svg"><path fill-rule="evenodd" clip-rule="evenodd" d="M13 0a3 3 0 0 0-3 3v1H3a3 3 0 0 0-3 3v2.768l15.228 4.06a3 3 0 0 0 1.544 0L32 9.768V7a3 3 0 0 0-3-3h-7V3a3 3 0 0 0-3-3h-6Zm0 2h6a1 1 0 0 1 1 1v1h-8V3a1 1 0 0 1 1-1ZM3 26a3 3 0 0 1-3-3V11.7l15.742 4.194a1 1 0 0 0 .516 0L32 11.7V23a3 3 0 0 1-3 3H3Z" fill="#fff"/></svg><svg fill="none" viewBox="0 0 48 48" id="icon-expierence" xmlns="http://www.w3.org/2000/svg"><path fill-rule="evenodd" clip-rule="evenodd" d="M10.5 0A1.5 1.5 0 0 1 12 1.5V3h24V1.5a1.5 1.5 0 0 1 3 0V3h3a6 6 0 0 1 6 6v33a6 6 0 0 1-6 6H6a6 6 0 0 1-6-6V9a6 6 0 0 1 6-6h3V1.5A1.5 1.5 0 0 1 10.5 0Zm29.862 9H7.635C6.735 9 6 9.672 6 10.5v3c0 .828.732 1.5 1.635 1.5h32.73c.9 0 1.635-.672 1.635-1.5v-3c0-.828-.732-1.5-1.638-1.5Zm-7.8 15.438a1.502 1.502 0 0 1 0 2.124l-9 9a1.5 1.5 0 0 1-2.124 0l-4.5-4.5a1.502 1.502 0 1 1 2.124-2.124l3.438 3.441 7.938-7.941a1.502 1.502 0 0 1 2.124 0Z" fill="#fff"/></svg><svg fill="none" viewBox="0 0 148 146" id="icon-get-started" xmlns="http://www.w3.org/2000/svg"><path d="m74 110.73-17.71 34.765.515-38.993-31.876 22.573 18.62-34.288-38.74 5.21 32.46-21.728L.54 64.922l38.865-4.19L13.1 31.884l36.366 14.307L39.61 8.456l25.535 29.527L74 0l8.855 37.983L108.39 8.456l-9.855 37.736 36.366-14.307-26.305 28.846 38.864 4.19-36.73 13.348 32.461 21.728-38.741-5.21 18.621 34.288-31.876-22.573.514 38.993L74 110.73Z" fill="#EF6D58"/><path fill-rule="evenodd" clip-rule="evenodd" d="M64 62.847a4.994 4.994 0 0 1 5-4.988c2.761 0 5 2.233 5 4.988a4.994 4.994 0 0 1 5-4.988c2.761 0 5 2.233 5 4.988v.012c0 .14 0 .538-.076.985H88c1.105 0 2 .893 2 1.995v1.996a1.998 1.998 0 0 1-2 1.995H60c-1.105 0-2-.894-2-1.995v-1.996c0-1.102.895-1.995 2-1.995h4.076A5.915 5.915 0 0 1 64 62.86v-.012Zm2.136.997H72v-.997c0-1.07-.572-2.057-1.5-2.592a3.006 3.006 0 0 0-3 0 2.991 2.991 0 0 0-1.5 2.592c0 .17.004.546.09.858.012.047.027.094.046.14Zm15.728 0H76v-.997a2.996 2.996 0 0 1 3-2.993c1.657 0 3 1.34 3 2.993 0 .17-.004.546-.09.858a1.108 1.108 0 0 1-.046.14ZM88 71.824v14.964a2.996 2.996 0 0 1-3 2.993h-9V71.825h12ZM60 86.789a2.996 2.996 0 0 0 3 2.993h9V71.825H60v14.963Z" fill="#fff"/></svg><svg fill="none" viewBox="0 0 148 148" id="icon-play" xmlns="http://www.w3.org/2000/svg"><circle cx="74" cy="74" r="73.5" stroke="#fff" stroke-opacity=".504"/><path d="M86.776 72.382a2 2 0 0 1 0 3.236l-16.6 12.072c-1.322.961-3.176.017-3.176-1.617V61.928c0-1.635 1.854-2.58 3.176-1.618l16.6 12.072Z" fill="#fff"/></svg><svg fill="none" viewBox="0 0 12 12" id="icon-plus" xmlns="http://www.w3.org/2000/svg"><path fill-rule="evenodd" clip-rule="evenodd" d="M7 0H5v5H0v2h5v5h2V7h5V5H7V0Z" fill="#EF6C57"/></svg><svg fill="none" viewBox="0 0 48 39" id="icon-projects" xmlns="http://www.w3.org/2000/svg"><path fill-rule="evenodd" clip-rule="evenodd" d="M19.5 0A4.5 4.5 0 0 0 15 4.5V6H4.5A4.5 4.5 0 0 0 0 10.5v4.152l22.842 6.09a4.5 4.5 0 0 0 2.316 0L48 14.652V10.5A4.5 4.5 0 0 0 43.5 6H33V4.5A4.5 4.5 0 0 0 28.5 0h-9Zm0 3h9A1.5 1.5 0 0 1 30 4.5V6H18V4.5A1.5 1.5 0 0 1 19.5 3Zm-15 36A4.5 4.5 0 0 1 0 34.5V17.55l23.613 6.291a1.5 1.5 0 0 0 .774 0L48 17.55V34.5a4.5 4.5 0 0 1-4.5 4.5h-39Z" fill="#fff"/></svg><svg fill="none" viewBox="0 0 148 146" id="icon-star" xmlns="http://www.w3.org/2000/svg"><path d="m74 110.73-17.71 34.765.515-38.993-31.876 22.573 18.62-34.288-38.74 5.21 32.46-21.728L.54 64.922l38.865-4.19L13.1 31.884l36.366 14.307L39.61 8.456l25.535 29.527L74 0l8.855 37.983L108.39 8.456l-9.855 37.736 36.366-14.307-26.305 28.846 38.864 4.19-36.73 13.348 32.461 21.728-38.741-5.21 18.621 34.288-31.876-22.573.514 38.993L74 110.73Z" fill="#EF6D58"/><path fill-rule="evenodd" clip-rule="evenodd" d="M64 62.847a4.994 4.994 0 0 1 5-4.988c2.761 0 5 2.233 5 4.988a4.994 4.994 0 0 1 5-4.988c2.761 0 5 2.233 5 4.988v.012c0 .14 0 .538-.076.985H88c1.105 0 2 .893 2 1.995v1.996a1.998 1.998 0 0 1-2 1.995H60c-1.105 0-2-.894-2-1.995v-1.996c0-1.102.895-1.995 2-1.995h4.076A5.915 5.915 0 0 1 64 62.86v-.012Zm2.136.997H72v-.997c0-1.07-.572-2.057-1.5-2.592a3.006 3.006 0 0 0-3 0 2.991 2.991 0 0 0-1.5 2.592c0 .17.004.546.09.858.012.047.027.094.046.14Zm15.728 0H76v-.997a2.996 2.996 0 0 1 3-2.993c1.657 0 3 1.34 3 2.993 0 .17-.004.546-.09.858a1.108 1.108 0 0 1-.046.14ZM88 71.824v14.964a2.996 2.996 0 0 1-3 2.993h-9V71.825h12ZM60 86.789a2.996 2.996 0 0 0 3 2.993h9V71.825H60v14.963Z" fill="#fff"/></svg></svg>