<?xml version="1.0" encoding="utf-8"?><svg viewBox="0 0 148 148" xmlns="http://www.w3.org/2000/svg" xmlns:xlink="http://www.w3.org/1999/xlink"><style>:root>svg{display:none}:root>svg:target{display:block}</style><svg fill="none" viewBox="0 0 12 7" id="icon-arrow-accordion" xmlns="http://www.w3.org/2000/svg"><path fill-rule="evenodd" clip-rule="evenodd" d="M5.221 6.68.258 1.552C-.328.948.148 0 1.038 0h9.926c.406 0 .775.214.944.549a.866.866 0 0 1-.165 1.003L6.78 6.68C6.584 6.883 6.3 7 6 7c-.298 0-.582-.117-.779-.32Z" fill="#fff"/></svg><svg fill="none" viewBox="0 0 16 14" id="icon-check" xmlns="http://www.w3.org/2000/svg"><path fill-rule="evenodd" clip-rule="evenodd" d="M0 5.92c1.84.426 4.208 1.25 6 2.545C8.105 5.335 11.885 2.406 16 0c-3.907 4.274-7.14 9.124-9.333 14C4.899 11.213 2.969 8.619 0 5.92Z" fill="#fff"/></svg><svg fill="none" viewBox="0 0 23 24" id="icon-compas" xmlns="http://www.w3.org/2000/svg"><path fill-rule="evenodd" clip-rule="evenodd" d="M12.513 23.956c5.935-.513 10.486-5.37 10.487-11.194 0-5.075-3.48-9.52-8.491-10.85.133-.452.04-.94-.25-1.316A1.545 1.545 0 0 0 13.034 0H9.967c-.481 0-.935.22-1.225.596-.29.376-.382.864-.25 1.316C2.743 3.436-.865 9 .18 14.732c1.045 5.733 6.398 9.736 12.333 9.224Zm4.949-17.044.003-.002-.003.002Zm0 0-7.587 4.236-4.339 7.42 7.59-4.238 4.336-7.418Z" fill="#fff"/></svg><svg fill="none" viewBox="0 0 32 32" id="icon-design" xmlns="http://www.w3.org/2000/svg"><path fill-rule="evenodd" clip-rule="evenodd" d="M16 0a1 1 0 0 1 .894.552l.724 1.45H27c1.657 0 3 1.343 3 3.001v15.01H2V5.004a3.001 3.001 0 0 1 3-3.002h9.38l.726-1.449A1 1 0 0 1 16 0ZM1 22.015a1 1 0 0 0 0 2.002h5.72l-1.69 6.762a1 1 0 0 0 1.94.485l.81-3.244h16.44l.81 3.244a1 1 0 0 0 1.94-.485l-1.69-6.762H31a1 1 0 0 0 0-2.002H1Zm7.28 4.003.5-2.001h14.44l.5 2.001H8.28Z" fill="#fff"/></svg><svg fill="none" viewBox="0 0 32 26" id="icon-development" xmlns="http://www.w3.org/2000/svg"><path fill-rule="evenodd" clip-rule="evenodd" d="M13 0a3 3 0 0 0-3 3v1H3a3 3 0 0 0-3 3v2.768l15.228 4.06a3 3 0 0 0 1.544 0L32 9.768V7a3 3 0 0 0-3-3h-7V3a3 3 0 0 0-3-3h-6Zm0 2h6a1 1 0 0 1 1 1v1h-8V3a1 1 0 0 1 1-1ZM3 26a3 3 0 0 1-3-3V11.7l15.742 4.194a1 1 0 0 0 .516 0L32 11.7V23a3 3 0 0 1-3 3H3Z" fill="#fff"/></svg><svg fill="none" viewBox="0 0 48 48" id="icon-expierence" xmlns="http://www.w3.org/2000/svg"><path fill-rule="evenodd" clip-rule="evenodd" d="M10.5 0A1.5 1.5 0 0 1 12 1.5V3h24V1.5a1.5 1.5 0 0 1 3 0V3h3a6 6 0 0 1 6 6v33a6 6 0 0 1-6 6H6a6 6 0 0 1-6-6V9a6 6 0 0 1 6-6h3V1.5A1.5 1.5 0 0 1 10.5 0Zm29.862 9H7.635C6.735 9 6 9.672 6 10.5v3c0 .828.732 1.5 1.635 1.5h32.73c.9 0 1.635-.672 1.635-1.5v-3c0-.828-.732-1.5-1.638-1.5Zm-7.8 15.438a1.502 1.502 0 0 1 0 2.124l-9 9a1.5 1.5 0 0 1-2.124 0l-4.5-4.5a1.502 1.502 0 1 1 2.124-2.124l3.438 3.441 7.938-7.941a1.502 1.502 0 0 1 2.124 0Z" fill="#fff"/></svg><svg fill="none" viewBox="0 0 10 16" id="icon-fb" xmlns="http://www.w3.org/2000/svg"><path d="M2.667 5.333H0V8h2.667v8h4V8h2.426l.24-2.667H6.667v-1.11c0-.638.128-.89.744-.89h1.922V0H6.128C3.731 0 2.667 1.056 2.667 3.077v2.256Z" fill="#fff"/></svg><svg fill="none" viewBox="0 0 148 146" id="icon-get-started" xmlns="http://www.w3.org/2000/svg"><path d="m74 110.73-17.71 34.765.515-38.993-31.876 22.573 18.62-34.288-38.74 5.21 32.46-21.728L.54 64.922l38.865-4.19L13.1 31.884l36.366 14.307L39.61 8.456l25.535 29.527L74 0l8.855 37.983L108.39 8.456l-9.855 37.736 36.366-14.307-26.305 28.846 38.864 4.19-36.73 13.348 32.461 21.728-38.741-5.21 18.621 34.288-31.876-22.573.514 38.993L74 110.73Z" fill="#EF6D58"/><path fill-rule="evenodd" clip-rule="evenodd" d="M64 62.847a4.994 4.994 0 0 1 5-4.988c2.761 0 5 2.233 5 4.988a4.994 4.994 0 0 1 5-4.988c2.761 0 5 2.233 5 4.988v.012c0 .14 0 .538-.076.985H88c1.105 0 2 .893 2 1.995v1.996a1.998 1.998 0 0 1-2 1.995H60c-1.105 0-2-.894-2-1.995v-1.996c0-1.102.895-1.995 2-1.995h4.076A5.915 5.915 0 0 1 64 62.86v-.012Zm2.136.997H72v-.997c0-1.07-.572-2.057-1.5-2.592a3.006 3.006 0 0 0-3 0 2.991 2.991 0 0 0-1.5 2.592c0 .17.004.546.09.858.012.047.027.094.046.14Zm15.728 0H76v-.997a2.996 2.996 0 0 1 3-2.993c1.657 0 3 1.34 3 2.993 0 .17-.004.546-.09.858a1.108 1.108 0 0 1-.046.14ZM88 71.824v14.964a2.996 2.996 0 0 1-3 2.993h-9V71.825h12ZM60 86.789a2.996 2.996 0 0 0 3 2.993h9V71.825H60v14.963Z" fill="#fff"/></svg><svg fill="none" viewBox="0 0 16 16" id="icon-instagram" xmlns="http://www.w3.org/2000/svg"><path fill-rule="evenodd" clip-rule="evenodd" d="M8 0C5.827 0 5.556.01 4.701.05 1.795.182.181 1.794.048 4.7.009 5.556 0 5.828 0 8c0 2.173.01 2.445.048 3.299.133 2.905 1.747 4.52 4.653 4.653C5.556 15.991 5.827 16 8 16s2.445-.01 3.3-.048c2.901-.133 4.521-1.745 4.652-4.653.039-.854.048-1.126.048-3.299 0-2.172-.01-2.444-.048-3.299C15.822 1.8 14.207.181 11.3.05 10.445.01 10.173 0 8 0Zm0 1.442c2.136 0 2.39.008 3.233.047 2.17.099 3.18 1.127 3.28 3.279.038.844.046 1.096.046 3.232s-.008 2.389-.046 3.232c-.1 2.15-1.109 3.181-3.28 3.28-.844.037-1.096.046-3.233.046-2.136 0-2.39-.008-3.232-.046-2.173-.1-3.18-1.132-3.28-3.28-.037-.843-.047-1.096-.047-3.232s.01-2.39.047-3.232c.099-2.154 1.11-3.182 3.28-3.28.843-.039 1.096-.046 3.232-.046ZM3.892 8a4.108 4.108 0 1 1 8.216 0 4.108 4.108 0 0 1-8.216 0ZM8 10.666a2.666 2.666 0 1 1 0-5.333 2.668 2.668 0 1 1 0 5.333Zm3.31-6.935a.96.96 0 1 1 1.92 0 .96.96 0 0 1-1.92 0Z" fill="#fff"/></svg><svg fill="none" viewBox="0 0 24 18" id="icon-mail" xmlns="http://www.w3.org/2000/svg"><path fill-rule="evenodd" clip-rule="evenodd" d="M3 0A3 3 0 0 0 .075 2.333L12 9.62l11.925-7.289A3 3 0 0 0 21 0H3ZM0 14.702V4.046l8.704 5.319L0 14.702Zm10.142-4.457-9.856 6.04A3 3 0 0 0 3 18h18a3 3 0 0 0 2.712-1.716l-9.855-6.04L12 11.378l-1.858-1.136v.002ZM24 14.702l-8.704-5.336v-.001L24 4.045v10.657Z" fill="#fff"/></svg><svg fill="none" viewBox="0 0 24 24" id="icon-phone" xmlns="http://www.w3.org/2000/svg"><path fill-rule="evenodd" clip-rule="evenodd" d="M2.828.765a2.617 2.617 0 0 1 3.915.245l2.692 3.459c.494.634.668 1.461.473 2.241l-.82 3.285c-.087.346.014.712.266.965l3.686 3.685c.253.253.62.354.966.267l3.283-.82a2.617 2.617 0 0 1 2.241.472l3.459 2.692a2.617 2.617 0 0 1 .244 3.916l-1.55 1.551c-1.11 1.11-2.77 1.598-4.316 1.053a27.949 27.949 0 0 1-10.515-6.63A27.953 27.953 0 0 1 .222 6.632C-.32 5.087.168 3.426 1.278 2.316L2.828.766Z" fill="#fff"/></svg><svg fill="none" viewBox="0 0 148 148" id="icon-play" xmlns="http://www.w3.org/2000/svg"><circle cx="74" cy="74" r="73.5" stroke="#fff" stroke-opacity=".504"/><path d="M86.776 72.382a2 2 0 0 1 0 3.236l-16.6 12.072c-1.322.961-3.176.017-3.176-1.617V61.928c0-1.635 1.854-2.58 3.176-1.618l16.6 12.072Z" fill="#fff"/></svg><svg fill="none" viewBox="0 0 12 12" id="icon-plus" xmlns="http://www.w3.org/2000/svg"><path fill-rule="evenodd" clip-rule="evenodd" d="M7 0H5v5H0v2h5v5h2V7h5V5H7V0Z" fill="#EF6C57"/></svg><svg fill="none" viewBox="0 0 48 39" id="icon-projects" xmlns="http://www.w3.org/2000/svg"><path fill-rule="evenodd" clip-rule="evenodd" d="M19.5 0A4.5 4.5 0 0 0 15 4.5V6H4.5A4.5 4.5 0 0 0 0 10.5v4.152l22.842 6.09a4.5 4.5 0 0 0 2.316 0L48 14.652V10.5A4.5 4.5 0 0 0 43.5 6H33V4.5A4.5 4.5 0 0 0 28.5 0h-9Zm0 3h9A1.5 1.5 0 0 1 30 4.5V6H18V4.5A1.5 1.5 0 0 1 19.5 3Zm-15 36A4.5 4.5 0 0 1 0 34.5V17.55l23.613 6.291a1.5 1.5 0 0 0 .774 0L48 17.55V34.5a4.5 4.5 0 0 1-4.5 4.5h-39Z" fill="#fff"/></svg><svg fill="none" viewBox="0 0 148 146" id="icon-star" xmlns="http://www.w3.org/2000/svg"><path d="m74 110.73-17.71 34.765.515-38.993-31.876 22.573 18.62-34.288-38.74 5.21 32.46-21.728L.54 64.922l38.865-4.19L13.1 31.884l36.366 14.307L39.61 8.456l25.535 29.527L74 0l8.855 37.983L108.39 8.456l-9.855 37.736 36.366-14.307-26.305 28.846 38.864 4.19-36.73 13.348 32.461 21.728-38.741-5.21 18.621 34.288-31.876-22.573.514 38.993L74 110.73Z" fill="#EF6D58"/><path fill-rule="evenodd" clip-rule="evenodd" d="M64 62.847a4.994 4.994 0 0 1 5-4.988c2.761 0 5 2.233 5 4.988a4.994 4.994 0 0 1 5-4.988c2.761 0 5 2.233 5 4.988v.012c0 .14 0 .538-.076.985H88c1.105 0 2 .893 2 1.995v1.996a1.998 1.998 0 0 1-2 1.995H60c-1.105 0-2-.894-2-1.995v-1.996c0-1.102.895-1.995 2-1.995h4.076A5.915 5.915 0 0 1 64 62.86v-.012Zm2.136.997H72v-.997c0-1.07-.572-2.057-1.5-2.592a3.006 3.006 0 0 0-3 0 2.991 2.991 0 0 0-1.5 2.592c0 .17.004.546.09.858.012.047.027.094.046.14Zm15.728 0H76v-.997a2.996 2.996 0 0 1 3-2.993c1.657 0 3 1.34 3 2.993 0 .17-.004.546-.09.858a1.108 1.108 0 0 1-.046.14ZM88 71.824v14.964a2.996 2.996 0 0 1-3 2.993h-9V71.825h12ZM60 86.789a2.996 2.996 0 0 0 3 2.993h9V71.825H60v14.963Z" fill="#fff"/></svg><svg fill="none" viewBox="0 0 24 22" id="icon-star-checked" xmlns="http://www.w3.org/2000/svg"><path d="m12 18-7.053 3.708 1.347-7.854L.587 8.292l7.886-1.146L12 0l3.527 7.146 7.886 1.146-5.707 5.562 1.347 7.854L12 18Z" fill="#F6D021"/></svg><svg fill="none" viewBox="0 0 24 22" id="icon-star-unchecked" xmlns="http://www.w3.org/2000/svg"><path d="M12.407 17.226 12 17.01l-.407.215-5.484 2.883 1.047-6.107.078-.453-.33-.322-4.436-4.324 6.131-.891.455-.066.204-.413L12 1.977l2.742 5.556.204.413.455.066 6.131.89-4.436 4.325-.33.322.078.453 1.047 6.107-5.484-2.884Z" stroke="#F6D021" stroke-width="1.75"/></svg><svg fill="none" viewBox="0 0 16 13" id="icon-twitter" xmlns="http://www.w3.org/2000/svg"><path d="M16 1.54a6.57 6.57 0 0 1-1.885.517A3.297 3.297 0 0 0 15.559.241a6.569 6.569 0 0 1-2.086.796A3.286 3.286 0 0 0 7.88 4.03 9.323 9.323 0 0 1 1.115.602 3.287 3.287 0 0 0 2.13 4.984a3.276 3.276 0 0 1-1.486-.41C.61 6.093 1.7 7.515 3.28 7.833a3.29 3.29 0 0 1-1.483.055 3.287 3.287 0 0 0 3.067 2.279A6.606 6.606 0 0 1 0 11.529a9.284 9.284 0 0 0 5.03 1.475c6.097 0 9.54-5.148 9.331-9.765A6.617 6.617 0 0 0 16 1.54Z" fill="#fff"/></svg></svg>