<svg width="434" height="297" viewBox="0 0 434 297" fill="none" xmlns="http://www.w3.org/2000/svg">
<path fill-rule="evenodd" clip-rule="evenodd" d="M293.057 13.3356C282.724 3.29555 268.353 -1.47095 254.053 0.399106C240.128 2.35444 227.759 10.2907 220.197 22.1202C215.881 28.7532 213.251 36.3371 212.536 44.2138L214.448 42.3031C196.753 40.7763 178.95 43.5535 162.566 50.3967C148.807 56.9587 139.087 69.7661 136.487 84.7598C135.131 92.7177 136.823 100.893 141.227 107.665L142.5 104.546C120.897 110.016 102.955 124.985 93.7327 145.23C89.6021 155.501 88.8784 166.822 91.6678 177.533C94.3903 187.373 100.703 195.841 109.366 201.273C118.599 207.343 130.068 208.979 140.636 205.731L137.706 204.073C144.03 222.74 160.202 236.373 179.704 239.475C201.703 243.831 224.529 240.79 244.612 230.829C256.622 225.193 267.53 217.467 276.824 208.014L275.083 208.735C287.301 209.488 299.553 207.98 311.221 204.289C322.013 201.076 332.253 196.246 341.591 189.964C350.236 184.282 357.479 176.721 362.777 167.847C367.588 159.489 369.703 149.855 368.833 140.255C368.132 129.624 362.893 119.805 354.445 113.289V117.657C366.324 108.615 372.878 94.2402 371.905 79.3641C370.765 67.9234 365.09 57.4119 356.143 50.1674C347.195 42.923 335.718 39.5465 324.263 40.7889L326.053 45.1031C334.119 37.3883 336.322 25.3842 331.519 15.3185C326.475 5.52968 315.403 0.419833 304.661 2.92272C298.742 4.09068 293.463 7.39869 289.837 12.212C289.178 13.3568 289.562 14.8176 290.699 15.4927C291.849 16.1274 293.295 15.7492 293.985 14.6335C299.631 8.0296 308.776 5.58886 316.972 8.4987C325.246 11.72 330.181 20.2307 328.855 28.994C328.371 33.8208 326.094 38.2921 322.472 41.528C321.771 42.2587 321.57 43.3333 321.957 44.2676C322.345 45.2018 323.249 45.8195 324.262 45.8421C337.545 44.3372 350.685 49.6614 359.156 59.9804C367.231 70.248 369.294 83.9994 364.584 96.1762C362.171 103.024 357.747 108.987 351.887 113.289C351.218 113.692 350.77 114.377 350.67 115.151C350.57 115.925 350.83 116.701 351.375 117.26C365.396 129.695 368.216 150.483 358.01 166.188C352.645 174.815 345.335 182.074 336.664 187.387C327.131 193.444 316.713 197.987 305.783 200.852C299.876 202.463 293.826 203.495 287.718 203.934C284.756 204.127 281.782 204.109 278.817 204.012C277.365 203.782 275.889 203.746 274.427 203.904C273.145 204.581 272.034 205.538 271.175 206.704C263.481 214.139 254.712 220.38 245.161 225.217C226.985 234.882 206.238 238.642 185.817 235.972C168.261 234.352 152.674 224.096 144.267 208.633C143.446 206.75 142.787 204.8 142.298 202.805C141.938 201.547 140.634 200.809 139.368 201.146C121.613 206.113 103.034 196.521 96.8411 179.191C93.5627 169.557 93.5733 159.112 96.8713 149.484C100.139 139.879 105.958 131.337 113.707 124.771C122.441 117.365 132.635 111.871 143.631 108.644C144.264 108.461 144.779 107.999 145.027 107.39C145.275 106.781 145.23 106.091 144.904 105.52C138.134 93.8524 139.128 79.2545 147.418 68.6087C156.879 56.4783 170.981 48.833 186.328 47.5125C195.645 46.2402 205.054 45.7738 214.45 46.1185C215.496 46.0969 216.339 45.2572 216.363 44.2138C217.669 31.3644 224.373 19.6696 234.811 12.0318C245.444 4.47754 258.837 1.8914 271.527 4.94161C278.903 6.60031 285.784 9.97008 291.611 14.7777C292.016 15.1369 292.631 15.1188 293.015 14.7364C293.398 14.354 293.416 13.7399 293.056 13.3356H293.057Z" fill="#E7C4B2"/>
<g filter="url(#filter0_d_1_825)">
<rect x="80" y="48.8809" width="274" height="175.572" rx="6" fill="white"/>
</g>
<g filter="url(#filter1_d_1_825)">
<rect x="64" y="40.9004" width="306" height="175.572" rx="6" fill="white"/>
</g>
<g filter="url(#filter2_d_1_825)">
<rect x="48" y="32.9197" width="338" height="175.572" rx="6" fill="white"/>
</g>
<ellipse cx="92" cy="76.8127" rx="20" ry="19.9513" fill="#F7CC47"/>
<rect x="72" y="110.73" width="75" height="13.9659" rx="2" fill="#F5DED1"/>
<rect x="72" y="132.676" width="126" height="5.9854" rx="2.9927" fill="#F5DED1"/>
<path fill-rule="evenodd" clip-rule="evenodd" d="M289.5 109.403C282.456 110.627 275.32 111.248 268.169 111.26V111.259C267.428 111.271 267.211 112.472 267.989 112.589C276.225 113.697 284.593 113.353 292.709 111.573C307.131 108.594 320.693 102.417 332.388 93.501C338.279 89.0444 343.639 83.9306 348.362 78.2594C350.869 75.19 353.184 71.974 355.295 68.6298L355.311 68.552C355.728 66.4789 356.151 64.409 356.588 62.3414C356.873 62.3022 357.158 62.2655 357.444 62.2314C358.916 62.0609 359.002 59.8421 357.444 59.8752C357.334 59.8769 357.224 59.8793 357.114 59.8821C357.213 59.4228 357.313 58.9635 357.415 58.5043L360.292 59.7114C358.783 62.7715 357.115 65.7482 355.295 68.6298L354.361 73.3057C354.504 73.0642 354.766 72.9096 355.057 72.9096C355.413 72.9096 355.727 73.141 355.831 73.4799C356.125 74.6605 356.29 75.833 356.458 77.0193C356.514 77.4189 356.571 77.82 356.633 78.2235L353.41 78.6591C353.436 79.3588 353.912 79.9878 354.621 80.1825C355.476 80.4171 356.364 79.9376 356.633 79.0964C357.112 77.4509 357.463 75.7714 357.685 74.0724L358.622 69.2387C359.265 65.9445 359.874 62.6435 360.451 59.3357C360.642 58.58 360.256 57.7977 359.539 57.4867C358.815 57.1772 357.973 57.4521 357.574 58.1282C357.301 58.7204 357.02 59.3091 356.733 59.8942C354.657 59.9723 352.593 60.2466 350.568 60.7136C349.401 60.9973 348.254 61.3602 347.136 61.7999C346.146 62.0506 345.251 62.5821 344.557 63.33C344.399 63.6016 344.376 63.9309 344.495 64.2217C344.614 64.5126 344.861 64.7321 345.164 64.8163C346.148 64.8562 347.128 64.6663 348.026 64.2617C348.965 63.9751 349.918 63.731 350.871 63.4867C350.951 63.4664 351.03 63.4461 351.109 63.4257C352.519 63.0598 353.945 62.7587 355.382 62.5233C352.346 68.1776 348.652 73.4628 344.371 78.2679C334.891 89.0168 323.132 97.5355 309.943 103.209C303.383 106.027 296.525 108.105 289.5 109.403ZM353.896 75.3405C354.016 74.7529 354.152 74.1685 354.304 73.5879L354.361 73.3057C354.329 73.3597 354.303 73.418 354.284 73.4799C354.126 74.1012 354.003 74.7203 353.896 75.3405ZM353.896 75.3405C353.672 76.438 353.503 77.5464 353.392 78.6616L353.41 78.6591C353.405 78.5158 353.419 78.3696 353.453 78.2235C353.515 77.8317 353.572 77.4422 353.63 77.0541C353.714 76.4805 353.798 75.9101 353.896 75.3405Z" fill="#EF6D58"/>
<rect x="72" y="176.569" width="289" height="5.9854" rx="2.9927" fill="#F4E4FF"/>
<rect x="72" y="176.569" width="113" height="5.9854" rx="2.9927" fill="#B550F8"/>
<defs>
<filter id="filter0_d_1_825" x="32" y="24.8809" width="370" height="271.572" filterUnits="userSpaceOnUse" color-interpolation-filters="sRGB">
<feFlood flood-opacity="0" result="BackgroundImageFix"/>
<feColorMatrix in="SourceAlpha" type="matrix" values="0 0 0 0 0 0 0 0 0 0 0 0 0 0 0 0 0 0 127 0" result="hardAlpha"/>
<feOffset dy="24"/>
<feGaussianBlur stdDeviation="24"/>
<feColorMatrix type="matrix" values="0 0 0 0 0.333333 0 0 0 0 0.117647 0 0 0 0 0 0 0 0 0.04 0"/>
<feBlend mode="normal" in2="BackgroundImageFix" result="effect1_dropShadow_1_825"/>
<feBlend mode="normal" in="SourceGraphic" in2="effect1_dropShadow_1_825" result="shape"/>
</filter>
<filter id="filter1_d_1_825" x="16" y="16.9004" width="402" height="271.572" filterUnits="userSpaceOnUse" color-interpolation-filters="sRGB">
<feFlood flood-opacity="0" result="BackgroundImageFix"/>
<feColorMatrix in="SourceAlpha" type="matrix" values="0 0 0 0 0 0 0 0 0 0 0 0 0 0 0 0 0 0 127 0" result="hardAlpha"/>
<feOffset dy="24"/>
<feGaussianBlur stdDeviation="24"/>
<feColorMatrix type="matrix" values="0 0 0 0 0.333333 0 0 0 0 0.117647 0 0 0 0 0 0 0 0 0.04 0"/>
<feBlend mode="normal" in2="BackgroundImageFix" result="effect1_dropShadow_1_825"/>
<feBlend mode="normal" in="SourceGraphic" in2="effect1_dropShadow_1_825" result="shape"/>
</filter>
<filter id="filter2_d_1_825" x="0" y="8.91968" width="434" height="271.572" filterUnits="userSpaceOnUse" color-interpolation-filters="sRGB">
<feFlood flood-opacity="0" result="BackgroundImageFix"/>
<feColorMatrix in="SourceAlpha" type="matrix" values="0 0 0 0 0 0 0 0 0 0 0 0 0 0 0 0 0 0 127 0" result="hardAlpha"/>
<feOffset dy="24"/>
<feGaussianBlur stdDeviation="24"/>
<feColorMatrix type="matrix" values="0 0 0 0 0.333333 0 0 0 0 0.117647 0 0 0 0 0 0 0 0 0.04 0"/>
<feBlend mode="normal" in2="BackgroundImageFix" result="effect1_dropShadow_1_825"/>
<feBlend mode="normal" in="SourceGraphic" in2="effect1_dropShadow_1_825" result="shape"/>
</filter>
</defs>
</svg>
